<?xml version="1.0" standalone="no"?>
<!DOCTYPE svg PUBLIC "-//W3C//DTD SVG 20010904//EN"
 "http://www.w3.org/TR/2001/REC-SVG-20010904/DTD/svg10.dtd">
<svg version="1.0" xmlns="http://www.w3.org/2000/svg"
 width="512.000000pt" height="512.000000pt" viewBox="0 0 512.000000 512.000000"
 preserveAspectRatio="xMidYMid meet">
<metadata>
Created by potrace 1.14, written by Peter Selinger 2001-2017
</metadata>
<g transform="translate(0.000000,512.000000) scale(0.100000,-0.100000)"
fill="#000000" stroke="none">
<path d="M2995 5094 c-49 -7 -211 -29 -360 -49 -148 -19 -369 -49 -490 -65
-367 -49 -1119 -149 -1310 -175 -459 -61 -644 -85 -688 -91 l-47 -7 0 -2142 0
-2142 163 -22 c89 -12 272 -38 407 -56 135 -19 380 -53 545 -75 165 -22 563
-77 885 -121 322 -44 668 -91 770 -105 102 -13 200 -27 218 -30 l32 -6 0 221
0 221 823 2 822 3 56 28 c66 32 132 99 162 165 l22 47 0 1870 0 1870 -27 57
c-31 66 -91 128 -156 160 l-47 23 -827 3 -828 2 0 215 c0 199 -1 215 -17 214
-10 -1 -58 -7 -108 -15z m1766 -617 c69 -46 64 110 64 -1914 l0 -1832 -21 -28
c-11 -15 -36 -38 -54 -50 l-33 -23 -803 0 -804 0 0 644 0 645 79 144 c44 80
146 268 227 419 80 150 152 279 160 287 11 13 14 13 18 0 3 -8 33 -221 66
-474 34 -252 66 -465 71 -472 26 -30 270 -173 298 -173 5 0 91 145 192 323
100 177 253 437 339 577 199 325 194 315 187 333 -7 18 -334 190 -351 184 -6
-3 -74 -126 -150 -273 -186 -362 -212 -404 -230 -376 -9 15 -24 128 -76 557
-27 230 -54 423 -58 427 -5 5 -55 28 -113 52 -57 23 -126 55 -154 70 l-50 27
-20 -26 c-11 -14 -82 -146 -159 -293 -77 -147 -170 -319 -208 -382 l-68 -115
0 883 0 882 809 0 808 0 34 -23z m-3930 -1460 c27 -60 49 -111 49 -113 0 -2
-22 -4 -49 -4 -91 0 -141 -35 -141 -97 0 -44 20 -79 96 -173 75 -93 98 -149
98 -231 0 -87 -43 -179 -112 -240 -55 -49 -163 -103 -238 -120 -51 -12 -54
-11 -73 12 -23 28 -111 192 -111 206 0 6 30 18 66 27 88 22 121 40 144 79 37
60 22 108 -65 207 -80 91 -105 148 -105 236 0 118 49 192 174 260 59 32 160
64 195 61 20 -2 31 -19 72 -110z m780 93 c177 -33 345 -194 394 -376 21 -76
21 -231 0 -307 -44 -166 -157 -290 -316 -348 -32 -12 -59 -24 -59 -26 0 -15
35 -64 69 -98 23 -21 41 -42 41 -47 0 -27 -290 -40 -340 -15 -23 11 -25 20
-30 91 l-5 78 -54 18 c-242 85 -376 353 -316 633 39 185 196 349 378 393 65
15 167 17 238 4z m823 -66 c-1 -27 -5 -206 -9 -398 l-8 -348 223 7 223 8 -6
-109 c-3 -60 -8 -118 -13 -128 -7 -18 -19 -19 -348 -12 -188 4 -344 10 -347
14 -4 4 -9 233 -11 509 l-5 502 141 3 c78 2 146 3 151 2 6 0 9 -23 9 -50z"/>
<path d="M1416 2835 c-85 -30 -146 -120 -154 -226 -9 -126 35 -226 120 -271
60 -32 175 -32 235 0 82 43 126 128 126 243 1 63 -4 86 -27 133 -55 112 -181
164 -300 121z"/>
</g>
</svg>
